<?xml version="1.0" standalone="no"?>
<!DOCTYPE svg PUBLIC "-//W3C//DTD SVG 20010904//EN"
 "http://www.w3.org/TR/2001/REC-SVG-20010904/DTD/svg10.dtd">
<svg version="1.0" xmlns="http://www.w3.org/2000/svg"
 width="1024.000000pt" height="1024.000000pt" viewBox="0 0 1024.000000 1024.000000"
 preserveAspectRatio="xMidYMid meet">
<metadata>
Created by potrace 1.11, written by Peter Selinger 2001-2013
</metadata>
<g transform="translate(0.000000,1024.000000) scale(0.100000,-0.100000)"
fill="#000000" stroke="none">
<path d="M0 5120 l0 -5120 5120 0 5120 0 0 5120 0 5120 -5120 0 -5120 0 0
-5120z m3753 -2475 c397 -53 649 -243 763 -577 95 -281 80 -661 -40 -953 -104
-255 -317 -466 -562 -554 -190 -69 -220 -71 -916 -56 l-398 8 0 83 c0 94 -5
88 95 99 33 3 75 9 93 12 l32 5 0 859 0 858 -32 6 c-18 3 -64 11 -103 18 l-70
12 -3 88 -3 87 273 1 c150 1 316 5 368 9 164 12 391 10 503 -5z m-2425 -92
l-3 -87 -114 -18 c-62 -9 -115 -19 -118 -22 -3 -2 96 -310 220 -683 124 -373
237 -724 253 -781 15 -56 31 -99 34 -95 4 5 21 67 39 138 17 72 122 419 232
773 111 354 199 645 196 648 -2 3 -51 13 -108 22 l-104 18 -3 87 -3 87 346 0
346 0 -3 -87 -3 -87 -89 -18 c-49 -10 -90 -19 -92 -20 -1 -2 -150 -437 -331
-968 l-328 -965 -169 0 -170 0 -359 965 c-198 531 -361 966 -362 967 0 1 -39
11 -85 21 l-85 18 -3 87 -3 87 436 0 436 0 -3 -87z m4330 0 l-3 -88 -50 -7
c-27 -5 -80 -13 -117 -19 l-68 -11 0 -359 0 -359 440 0 440 0 0 359 0 359 -97
17 c-54 9 -104 18 -110 20 -9 3 -13 30 -13 90 l0 85 425 0 425 0 0 -85 c0 -60
-4 -87 -12 -90 -7 -2 -57 -11 -110 -21 l-98 -16 0 -858 0 -858 88 -11 c146
-20 132 -9 132 -106 l0 -85 -430 0 -430 0 0 84 c0 97 -16 85 143 106 l87 12 0
389 0 389 -440 0 -440 0 0 -389 0 -389 43 -6 c23 -3 67 -8 97 -11 107 -12 100
-4 100 -100 l0 -85 -435 0 -435 0 0 84 c0 96 -5 90 95 101 33 3 75 9 93 12
l32 5 0 858 0 858 -22 5 c-13 3 -60 11 -105 18 l-83 12 0 89 0 88 430 0 431 0
-3 -87z m3852 -1508 l0 -55 70 0 c63 0 70 -2 70 -20 0 -18 -7 -20 -70 -20
l-70 0 0 -170 c0 -170 0 -171 26 -196 20 -21 32 -25 62 -22 20 3 44 8 53 12
24 11 35 -25 13 -41 -48 -35 -141 -24 -185 23 -23 25 -24 30 -27 210 l-3 184
-45 0 c-37 0 -44 3 -44 20 0 17 7 20 45 20 l45 0 0 55 c0 54 0 55 30 55 30 0
30 -1 30 -55z m-1624 -60 c31 -9 64 -29 87 -52 l37 -36 0 46 c0 44 2 47 26 47
l25 0 -3 -263 -3 -264 -28 -42 c-62 -93 -237 -117 -369 -50 -45 23 -52 33 -38
59 11 20 11 20 38 0 41 -29 145 -53 201 -45 97 13 136 57 147 169 7 71 0 81
-32 45 -74 -82 -242 -82 -327 -1 -103 97 -93 276 18 352 70 48 140 59 221 35z
m663 -15 c67 -34 108 -97 118 -181 l6 -49 -207 0 -206 0 6 -27 c22 -92 100
-153 195 -153 34 0 87 18 120 41 26 18 27 18 44 -1 16 -18 15 -20 -22 -44
-127 -85 -309 -41 -369 87 -28 60 -33 157 -11 210 53 125 204 180 326 117z
m567 19 c57 -15 108 -62 123 -114 6 -22 11 -111 11 -197 l0 -158 -29 0 -30 0
-3 175 -3 175 -31 31 c-76 76 -216 53 -263 -45 -18 -37 -21 -61 -21 -189 l0
-147 -30 0 -30 0 0 235 0 235 30 0 c29 0 30 -2 30 -42 l0 -42 34 33 c33 32 98
59 144 60 13 1 43 -4 68 -10z m-1636 -404 c15 -19 6 -61 -16 -69 -27 -10 -53
3 -60 30 -8 30 11 54 41 54 12 0 28 -7 35 -15z"/>
<path d="M3335 2475 c-5 -2 -31 -6 -57 -10 l-48 -6 0 -878 0 -879 23 -7 c12
-3 92 -9 177 -12 126 -4 167 -2 220 12 255 66 413 289 461 649 17 135 6 477
-19 587 -73 311 -223 482 -469 534 -59 13 -260 20 -288 10z"/>
<path d="M7755 937 c-75 -31 -109 -71 -121 -144 -11 -71 31 -155 97 -188 36
-19 142 -19 177 -1 97 51 129 174 67 267 -40 62 -150 95 -220 66z"/>
<path d="M8364 931 c-46 -21 -83 -66 -94 -117 l-8 -34 178 0 178 0 -10 38
c-22 78 -89 132 -168 132 -19 0 -53 -9 -76 -19z"/>
</g>
</svg>
