<?xml version="1.0" standalone="no"?>
<!DOCTYPE svg PUBLIC "-//W3C//DTD SVG 20010904//EN"
 "http://www.w3.org/TR/2001/REC-SVG-20010904/DTD/svg10.dtd">
<svg version="1.0" xmlns="http://www.w3.org/2000/svg"
 width="700.000000pt" height="700.000000pt" viewBox="0 0 700.000000 700.000000"
 preserveAspectRatio="xMidYMid meet">
<metadata>
Created by potrace 1.11, written by Peter Selinger 2001-2013
</metadata>
<g transform="translate(0.000000,700.000000) scale(0.100000,-0.100000)"
fill="#000000" stroke="none">
<path d="M0 3500 l0 -3500 3500 0 3500 0 0 3500 0 3500 -3500 0 -3500 0 0
-3500z m3170 -2030 l0 -940 -110 0 -110 0 0 102 0 101 -28 -39 c-87 -119 -179
-173 -329 -194 -385 -52 -661 286 -629 771 15 218 75 368 196 490 111 112 199
148 360 149 146 0 250 -40 341 -130 30 -30 63 -66 72 -80 15 -23 16 -2 16 343
l1 367 110 0 110 0 0 -940z m670 570 l0 -371 83 84 c125 128 218 163 401 155
131 -7 197 -32 274 -103 69 -63 105 -126 134 -232 21 -74 22 -103 26 -560 l4
-483 -111 0 -110 0 -3 478 c-3 476 -3 477 -27 537 -31 79 -99 146 -167 166
-27 7 -80 14 -119 13 -173 -1 -301 -96 -357 -265 -21 -61 -22 -87 -26 -496
l-4 -433 -104 0 -104 0 0 940 0 940 105 0 105 0 0 -370z m-3172 -187 c44 -122
413 -1107 416 -1110 3 -3 230 599 402 1065 l26 72 115 0 c63 0 113 -4 111 -9
-1 -5 -115 -309 -253 -675 l-250 -666 -150 0 -150 0 -235 628 c-129 345 -242
648 -252 675 l-18 47 114 0 114 0 10 -27z m6074 -895 l3 -53 63 -3 c54 -3 62
-6 62 -22 0 -18 -7 -20 -65 -20 l-65 0 0 -123 c0 -147 5 -158 78 -165 42 -4
52 -8 52 -23 0 -16 -8 -19 -55 -19 -65 0 -110 20 -119 52 -3 13 -6 80 -6 151
l0 127 -25 0 c-33 0 -35 37 -2 42 19 3 22 10 25 56 3 47 5 52 27 52 22 0 24
-5 27 -52z m-1157 -79 l35 -31 0 26 c0 21 5 26 25 26 l25 0 0 -203 c0 -178 -2
-206 -19 -237 -26 -50 -71 -73 -145 -74 -88 -1 -116 8 -116 40 0 21 3 25 18
19 33 -15 126 -16 152 -3 31 17 60 72 60 117 l0 34 -22 -20 c-35 -32 -63 -43
-106 -43 -78 0 -139 67 -149 162 -7 75 11 135 57 180 35 35 42 38 93 38 49 0
61 -4 92 -31z m465 13 c42 -22 80 -90 80 -144 l0 -37 -142 -3 -143 -3 3 -30
c4 -37 24 -70 58 -91 32 -21 128 -21 179 0 l36 16 -3 -27 c-2 -22 -11 -30 -43
-39 -112 -34 -220 -4 -263 74 -41 74 -28 207 26 255 54 49 149 62 212 29z
m440 5 c48 -24 60 -68 60 -224 l0 -143 -25 0 -25 0 0 125 c0 144 -12 189 -57
206 -38 14 -96 -3 -122 -38 -19 -23 -21 -40 -21 -159 l0 -134 -30 0 -30 0 0
185 0 185 30 0 c26 0 30 -4 30 -26 l0 -26 35 31 c29 25 44 31 83 31 26 0 58
-6 72 -13z m-1270 -327 c0 -39 -1 -40 -35 -40 -34 0 -35 1 -35 40 0 39 1 40
35 40 34 0 35 -1 35 -40z"/>
<path d="M2448 1715 c-148 -56 -237 -202 -258 -423 -21 -223 36 -431 146 -534
70 -65 200 -99 301 -78 78 16 127 43 179 97 88 90 134 239 134 430 -1 241 -81
417 -225 491 -42 21 -66 26 -145 29 -65 2 -107 -2 -132 -12z"/>
<path d="M5454 851 c-37 -22 -54 -65 -54 -133 0 -95 36 -141 112 -141 88 0
135 115 92 223 -27 66 -90 88 -150 51z"/>
<path d="M5914 856 c-37 -16 -64 -51 -64 -83 0 -23 2 -23 115 -23 l115 0 -6
28 c-11 43 -33 70 -66 81 -40 14 -56 13 -94 -3z"/>
</g>
</svg>
