<?xml version="1.0" encoding="UTF-8"?>
<svg id="Layer_1" data-name="Layer 1" xmlns="http://www.w3.org/2000/svg" viewBox="0 0 366 202.2">
  <path d="M170.4,34.2c-10,7.2-21.7,10.2-35.1,9l-3.6-.3V174.9c21-6.6,38.1-19.9,51.3-39.9l1.5,.9c-9.8,35-28.5,56-56.1,63-7.8,2-16,3-24.6,3-33.8,0-59.2-12-76.2-36-9.8-13.6-14.7-28.9-14.7-45.9,0-6.8,1.1-14.4,3.3-22.8,3.6-13.8,10-26.2,19.2-37.2,3.4-4.4,7.7-8.95,12.9-13.65,5.2-4.7,11.2-9.65,18-14.85l-18.3-.9c-9.2-.4-17.6,1.5-25.2,5.7-6.6,3.8-13.8,11.1-21.6,21.9H0C6,21.4,30.1,3,72.3,3c14,0,26.2,1.3,36.6,3.9,5.6,1.6,13.1,3.7,22.5,6.3,9,2.6,16.8,3.9,23.4,3.9,13,0,22.7-5.3,29.1-15.9l1.8,.3c0,14.4-5.1,25.3-15.3,32.7Zm-94.2-.6l-4.5-1.2c-20,21.2-30,44.4-30,69.6,0,21.2,8.2,39.7,24.6,55.5,6.6-6.2,9.9-14.4,9.9-24.6V33.6Zm48.9,9l-19.5-3.9v61.2c0,13.8-2.8,25.4-8.4,34.8-4,7-12.1,16.1-24.3,27.3,13.4,10,29.5,15,48.3,15l3.9-.9V42.6Z"/>
  <path d="M360.6,103.8c-5,16.4-14.7,34-29.1,52.8-2,2.6-6.3,7.7-12.9,15.3-6.6,7.6-15.6,17.7-27,30.3-13.2-6.4-23.9-9.6-32.1-9.6-7.2,0-15.9,2.3-26.1,6.9l-4.2-2.7c9.4-25.8,14.1-42.9,14.1-51.3l-.9-9.9c-1.6-6.6-5.3-11.7-11.1-15.3-5.8-3.6-12.3-5.4-19.5-5.4h-4.5c1.2-12.6,7.4-18.9,18.6-18.9,6.6,0,13.3,2.2,20.1,6.6,0-15.6-1.8-29.9-5.4-42.9-5-18.2-12.6-29.2-22.8-33-3-1-5.6-1.5-7.8-1.5-5.6,0-11.2,3.6-16.8,10.8,3-23.2,13.9-34.8,32.7-34.8,19.8,0,33.9,13,42.3,39L345.6,0c13.6,22,20.4,45,20.4,69,0,11.6-1.8,23.2-5.4,34.8Zm-67.2,19.5c-7.8,0-16.5,1.4-26.1,4.2-2.6,8.8-6.5,18.6-11.7,29.4-1,1.8-2.7,5-5.1,9.6-2.4,4.6-5.6,10.7-9.6,18.3l2.7,1.2c17-11.4,30.6-17.1,40.8-17.1,6.2,0,12.8,1.2,19.8,3.6,2.6-4.6,5.6-10.35,9-17.25,3.4-6.9,7.3-15.15,11.7-24.75-10.8-4.8-21.3-7.2-31.5-7.2Zm9.3-36.9c-7.4,0-16.7-1.4-27.9-4.2,0,12.8-1.6,25.5-4.8,38.1,6.6-1.2,13.6-1.8,21-1.8,14.2,0,26.1,2.2,35.7,6.6,4.6-13.8,6.9-28.5,6.9-44.1-11.2,3.6-21.5,5.4-30.9,5.4Zm25.2-40.35c-2.8-8.7-6.4-16.75-10.8-24.15l-46.8,25.2c3,18,4.5,27.9,4.5,29.7,12,3,20.8,4.5,26.4,4.5,7.8,0,18.6-2.3,32.4-6.9-1-10.2-2.9-19.65-5.7-28.35Z"/>
</svg>