<?xml version="1.0" standalone="no"?>
<!DOCTYPE svg PUBLIC "-//W3C//DTD SVG 20010904//EN"
 "http://www.w3.org/TR/2001/REC-SVG-20010904/DTD/svg10.dtd">
<svg version="1.0" xmlns="http://www.w3.org/2000/svg"
 width="1464.000000pt" height="1464.000000pt" viewBox="0 0 1464.000000 1464.000000"
 preserveAspectRatio="xMidYMid meet">
<metadata>
Created by potrace 1.14, written by Peter Selinger 2001-2017
</metadata>
<g transform="translate(0.000000,1464.000000) scale(0.100000,-0.100000)"
fill="#000000" stroke="none">
<path d="M13770 11331 c-125 -62 -396 -204 -407 -213 -7 -6 -13 -7 -13 -2 0 5
-4 4 -8 -1 -4 -6 -32 -23 -62 -39 -65 -33 -448 -231 -572 -296 -48 -25 -134
-69 -190 -99 -57 -29 -184 -95 -283 -146 -99 -51 -214 -111 -255 -133 -41 -22
-138 -72 -215 -112 -77 -40 -178 -92 -225 -117 -47 -24 -134 -70 -195 -100
-60 -31 -112 -59 -115 -62 -3 -3 -84 -46 -180 -94 -96 -48 -204 -104 -240
-122 -36 -19 -70 -35 -75 -35 -6 0 -24 39 -39 88 -16 48 -32 92 -35 97 -3 6
-6 12 -7 15 0 3 -6 18 -12 33 -7 16 -12 30 -12 33 0 5 -35 85 -64 143 -11 25
-21 47 -21 50 -1 10 -95 191 -105 201 -3 3 -14 21 -24 40 -25 47 -127 201
-143 218 -7 8 -25 30 -40 50 -34 47 -227 239 -272 272 -19 14 -40 31 -47 38
-7 6 -17 12 -23 12 -6 0 -11 5 -11 10 0 6 -7 10 -15 10 -8 0 -15 5 -15 10 0 6
-7 10 -15 10 -8 0 -15 3 -15 8 0 4 -15 13 -32 21 -18 8 -44 22 -58 31 -28 18
-221 96 -260 104 -14 3 -43 10 -65 16 -124 32 -380 50 -515 35 -74 -8 -126
-15 -150 -20 -32 -8 -60 -14 -85 -19 -11 -2 -47 -14 -80 -26 -33 -12 -73 -26
-90 -32 -16 -6 -32 -14 -35 -18 -3 -3 -21 -14 -40 -24 -122 -61 -216 -140
-318 -266 -61 -76 -61 -76 -86 -115 -25 -38 -130 -239 -127 -243 1 -1 -7 -28
-19 -60 -12 -31 -23 -61 -25 -67 -1 -5 -5 -17 -8 -25 -10 -26 -36 -124 -42
-159 -3 -19 -8 -37 -10 -41 -2 -4 -6 -20 -9 -36 -3 -16 -12 -69 -20 -119 -9
-49 -16 -94 -16 -100 0 -5 19 13 42 40 166 195 321 308 493 359 162 48 475
-22 642 -143 24 -17 45 -31 47 -31 18 0 209 -195 246 -250 8 -12 20 -28 25
-34 6 -6 23 -31 39 -56 16 -25 37 -56 46 -70 9 -14 41 -74 71 -135 30 -60 58
-113 62 -116 5 -3 9 -10 9 -15 1 -12 7 -32 23 -69 6 -16 18 -46 25 -65 6 -19
16 -44 20 -55 11 -26 70 -202 75 -223 2 -9 16 -57 30 -107 14 -49 28 -101 31
-115 3 -14 8 -34 11 -45 4 -11 7 -24 8 -30 0 -5 4 -23 8 -40 9 -36 16 -71 23
-105 2 -14 9 -45 14 -70 6 -25 12 -58 15 -75 2 -16 8 -52 14 -80 9 -47 15 -84
27 -180 3 -22 7 -51 9 -65 5 -38 17 -140 20 -180 2 -19 6 -69 10 -110 12 -142
15 -196 20 -402 5 -200 5 -206 -14 -201 -11 3 -29 14 -40 24 -12 11 -21 17
-21 13 0 -4 -8 0 -17 8 -39 33 -250 126 -353 155 -138 38 -204 47 -350 47
-137 0 -164 -3 -260 -29 -97 -27 -187 -80 -257 -150 -57 -58 -133 -162 -133
-183 0 -5 -7 -23 -16 -41 -9 -17 -17 -37 -18 -44 -1 -7 -4 -16 -7 -22 -8 -14
-25 -77 -34 -125 -2 -14 -6 -36 -9 -50 -3 -14 -6 -43 -8 -65 l-3 -40 140 -2
c182 -4 343 -20 395 -40 8 -3 25 -8 38 -10 51 -9 200 -67 291 -115 251 -131
405 -298 498 -543 32 -82 40 -119 48 -216 2 -31 8 -88 12 -125 10 -95 10 -307
-1 -374 -5 -30 -9 -65 -10 -77 -1 -13 -5 -23 -9 -23 -5 0 -6 -3 -4 -7 3 -5 -1
-37 -9 -73 -8 -36 -16 -78 -18 -95 -3 -16 -9 -42 -15 -57 -6 -16 -9 -28 -6
-28 2 0 -2 -18 -10 -40 -8 -22 -15 -44 -15 -48 -2 -21 -52 -201 -93 -337 -17
-55 -32 -104 -33 -110 -2 -5 -5 -19 -8 -30 -2 -11 -12 -40 -21 -65 -9 -25 -18
-52 -20 -60 -3 -15 -62 -193 -72 -220 -3 -8 -7 -22 -9 -30 -2 -8 -7 -23 -13
-35 -5 -11 -26 -69 -45 -128 -20 -60 -58 -170 -86 -246 -27 -75 -50 -140 -50
-144 0 -3 22 -18 50 -34 27 -15 50 -31 50 -35 0 -5 7 -8 15 -8 8 0 15 -4 15
-10 0 -5 7 -10 15 -10 8 0 15 -4 15 -9 0 -5 20 1 45 15 25 13 45 21 45 17 0
-3 6 -1 13 5 21 17 314 125 337 124 3 0 13 4 23 10 10 5 26 11 35 13 9 2 31 8
49 14 17 5 34 7 37 3 3 -3 6 -1 6 4 0 6 10 10 23 11 12 1 65 10 118 22 53 11
125 23 160 26 78 8 257 8 319 1 72 -10 114 -16 140 -22 14 -3 40 -8 59 -10 19
-3 42 -9 53 -15 10 -5 23 -7 28 -4 5 3 11 1 15 -5 3 -5 15 -10 25 -10 19 0
252 -72 305 -95 90 -38 262 -106 273 -109 7 -1 18 -8 24 -14 7 -7 17 -12 23
-12 11 0 119 -48 159 -71 20 -11 28 -4 158 142 31 35 67 76 80 90 12 14 55 61
93 104 39 43 93 103 120 134 28 30 60 66 73 80 12 15 36 42 53 61 17 19 56 64
87 99 32 35 73 81 92 102 19 20 44 47 54 60 16 19 122 141 171 195 6 6 35 39
65 74 30 35 60 68 65 74 6 6 35 40 65 76 30 36 60 70 65 76 6 6 28 32 50 59
22 26 46 54 54 62 14 14 55 64 120 142 20 25 43 52 51 61 8 8 31 36 50 60 19
25 38 47 42 48 5 2 8 10 8 17 0 7 4 15 8 17 4 2 21 21 37 43 17 22 33 44 38
50 4 5 24 32 45 60 20 27 43 56 50 63 6 7 12 17 12 21 0 4 9 19 21 32 35 40
289 425 289 437 0 7 4 12 8 12 5 0 19 19 32 43 13 23 26 44 30 47 3 3 12 20
19 38 8 17 17 32 22 32 5 0 9 4 9 9 0 5 19 42 43 83 24 40 63 111 88 158 24
47 46 87 49 90 3 3 25 48 50 100 25 52 49 98 53 101 5 3 8 9 7 13 0 3 8 27 19
51 11 25 20 48 20 50 1 3 11 26 25 53 13 26 42 97 66 157 23 61 48 126 55 145
12 31 37 107 40 120 1 3 12 37 24 75 21 65 60 197 65 220 1 6 5 19 9 30 3 11
8 31 11 45 9 50 48 225 53 240 3 8 7 26 8 40 7 53 15 109 30 195 3 17 8 55 10
85 3 30 7 64 10 75 32 141 25 838 -11 1075 -8 49 -12 78 -18 130 -3 25 -8 57
-11 72 -3 16 -7 38 -9 50 -16 88 -29 155 -50 253 -51 241 -199 687 -300 907
-14 31 -26 59 -26 62 0 11 -125 261 -132 264 -5 2 -8 11 -8 21 0 9 -4 21 -9
27 -4 5 -22 34 -38 64 -16 30 -35 64 -41 75 -9 17 -132 227 -136 232 -1 1 -26
-11 -56 -26z m-1034 -938 c161 -284 311 -640 410 -978 20 -66 37 -127 39 -135
2 -8 4 -15 5 -15 1 0 3 -9 5 -20 2 -11 9 -40 15 -65 6 -25 13 -54 16 -65 5
-27 13 -65 20 -95 10 -44 22 -104 28 -140 3 -19 10 -60 16 -90 10 -54 17 -100
25 -170 2 -19 6 -44 9 -55 2 -11 7 -57 11 -101 l7 -81 -79 -26 c-119 -38 -346
-106 -378 -113 -5 -1 -55 -13 -110 -27 -55 -14 -111 -28 -125 -31 -14 -3 -36
-8 -50 -11 -14 -3 -36 -7 -50 -10 -14 -3 -35 -7 -46 -9 -36 -7 -98 -18 -124
-21 -116 -14 -148 -18 -165 -21 -27 -6 -279 -5 -330 1 -22 2 -58 7 -80 10 -22
3 -56 7 -75 9 -19 3 -35 5 -35 6 0 1 -13 4 -30 6 -32 3 -60 8 -115 19 -19 3
-46 8 -60 10 -14 3 -56 11 -95 20 -38 9 -79 18 -90 19 -28 5 -233 54 -272 65
-17 5 -33 7 -36 5 -2 -2 -7 24 -10 58 -4 35 -9 77 -11 93 -2 17 -7 50 -10 75
-3 25 -10 71 -15 104 -6 32 -10 61 -9 65 0 3 -1 8 -2 11 -3 9 -19 107 -26 156
-4 34 -29 191 -39 249 -8 44 -23 135 -29 175 -3 19 -7 44 -10 55 -2 11 -7 40
-10 65 -3 25 -8 54 -10 66 -3 17 6 26 47 47 29 15 86 46 127 68 41 23 109 59
150 81 41 22 102 54 135 72 33 18 96 52 139 75 44 23 102 55 130 70 28 16 80
44 116 63 36 20 90 49 120 65 30 17 96 52 145 78 50 27 108 58 130 70 22 12
81 44 130 70 159 84 220 118 233 128 6 5 12 6 12 3 0 -4 6 -2 13 4 12 12 228
129 237 130 3 0 28 -39 56 -87z m608 -2365 c-3 -101 -15 -356 -19 -391 -2 -18
-7 -66 -11 -107 -4 -41 -8 -84 -9 -95 -3 -35 -17 -139 -21 -165 -2 -14 -7 -41
-10 -60 -3 -19 -7 -46 -10 -60 -2 -14 -7 -43 -10 -65 -3 -22 -7 -46 -10 -54
-3 -8 -7 -30 -10 -50 -3 -20 -7 -43 -10 -51 -3 -8 -8 -28 -11 -45 -2 -16 -8
-43 -13 -60 -5 -16 -11 -41 -14 -55 -6 -29 -8 -37 -40 -155 -35 -132 -68 -239
-76 -248 -4 -4 -52 10 -106 31 -54 22 -124 47 -154 56 -30 10 -62 20 -70 22
-8 3 -16 5 -17 5 -2 0 -17 5 -35 11 -34 10 -97 26 -133 33 -11 2 -42 9 -70 15
-27 6 -59 13 -70 15 -11 2 -37 6 -57 9 -21 3 -55 8 -75 11 -21 3 -51 8 -68 11
-219 39 -903 38 -1162 -1 -18 -3 -57 -7 -85 -11 -29 -3 -60 -7 -67 -10 -8 -3
-35 -7 -59 -10 -39 -5 -43 -3 -38 13 9 29 57 235 61 266 5 26 9 50 19 93 5 26
17 91 21 121 2 12 6 34 9 50 3 15 8 47 11 70 3 23 8 57 10 75 3 18 7 56 10 84
3 28 8 61 10 75 3 13 7 55 10 94 3 38 8 90 10 115 3 25 7 135 11 245 3 110 9
203 13 207 3 4 31 1 61 -7 30 -8 69 -17 85 -20 17 -3 38 -8 47 -11 45 -14 370
-74 399 -74 14 0 28 -3 32 -6 3 -3 30 -8 59 -10 29 -3 69 -7 88 -9 197 -28
588 -23 785 10 17 2 48 7 70 10 36 5 102 16 115 20 3 1 25 5 50 9 25 5 53 10
63 12 50 11 60 14 75 18 9 3 28 7 42 10 40 8 240 63 305 84 70 23 71 23 69
-70z m-1364 -1613 c47 -4 94 -9 105 -11 11 -2 40 -7 65 -10 111 -14 420 -89
475 -114 11 -5 40 -14 65 -21 25 -6 54 -16 65 -22 11 -6 25 -12 30 -13 20 -4
150 -57 160 -65 5 -5 17 -9 27 -9 20 0 23 -21 8 -48 -5 -9 -23 -46 -39 -82
-16 -36 -52 -114 -81 -175 -55 -116 -73 -160 -68 -160 1 0 -7 -14 -20 -32 -12
-17 -22 -34 -22 -37 0 -15 -357 -741 -459 -932 -65 -121 -122 -224 -126 -224
-1 0 -30 9 -64 20 -52 16 -97 30 -156 46 -5 2 -23 6 -40 9 -16 3 -57 12 -90
20 -58 14 -77 17 -175 30 -126 17 -295 21 -395 10 -68 -8 -275 -51 -314 -67
-14 -5 -33 -11 -41 -13 -125 -29 -582 -241 -747 -348 -24 -15 -47 -27 -52 -27
-5 0 -11 -3 -13 -7 -1 -5 -24 -19 -50 -33 -27 -13 -48 -28 -48 -32 0 -5 -5 -8
-12 -8 -6 0 -26 -11 -45 -26 -18 -14 -33 -21 -33 -17 0 4 -4 3 -8 -3 -4 -6
-37 -30 -74 -53 l-67 -42 -48 22 c-26 12 -49 23 -51 24 -4 4 63 138 111 223
20 34 33 62 30 62 -3 0 2 9 12 20 10 11 14 20 9 20 -5 0 -4 4 2 8 5 4 18 25
28 47 11 22 22 42 25 45 3 3 35 61 69 130 78 152 104 202 159 304 24 43 43 85
43 92 0 8 4 14 8 14 4 0 15 15 23 33 8 17 36 73 61 122 81 160 197 419 268
600 23 61 48 124 55 140 6 17 24 66 39 110 15 44 32 89 37 100 13 32 52 159
52 172 0 7 4 13 9 13 5 0 7 4 4 8 -7 11 8 33 25 36 8 2 21 6 29 9 22 9 259 67
300 73 19 3 37 7 40 9 3 2 24 6 46 9 22 4 51 9 64 12 14 3 36 7 50 9 14 1 45
6 70 10 64 10 92 13 200 20 52 4 96 8 98 9 5 5 291 -2 372 -9z"/>
<path d="M7355 11302 c-12 -9 -55 -69 -55 -77 0 -4 -6 -12 -12 -19 -7 -7 -22
-26 -33 -41 -22 -31 -178 -191 -210 -215 -177 -133 -350 -211 -540 -246 -11
-1 -33 -6 -50 -8 -179 -33 -502 -20 -747 29 -16 3 -38 7 -50 9 -108 21 -152
31 -285 67 -83 22 -158 42 -165 43 -7 2 -20 6 -28 9 -8 3 -58 17 -110 31 -117
32 -150 41 -220 62 -30 8 -68 18 -85 21 -16 3 -33 10 -37 16 -4 7 -8 9 -8 5 0
-4 -33 3 -72 14 -40 11 -86 24 -103 29 -16 4 -64 17 -105 29 -91 26 -177 48
-222 55 -18 3 -42 9 -53 12 -11 4 -31 7 -45 8 -14 1 -34 4 -45 8 -11 3 -38 8
-59 12 -21 3 -48 8 -60 10 -12 3 -41 7 -66 10 -25 2 -56 6 -70 9 -14 2 -54 7
-90 11 -36 4 -81 8 -100 11 -143 16 -325 26 -497 28 -84 0 -153 5 -153 9 0 5
-5 5 -11 1 -6 -3 -41 -6 -78 -5 -36 1 -70 2 -76 2 -94 0 -483 -26 -540 -37
-29 -6 -92 -15 -128 -19 -32 -3 -71 -10 -115 -20 -29 -7 -49 -11 -97 -20 -22
-5 -44 -9 -50 -11 -5 -2 -21 -6 -35 -9 -14 -3 -29 -7 -35 -9 -5 -2 -23 -6 -40
-11 -16 -4 -66 -19 -110 -33 -44 -14 -84 -27 -90 -28 -40 -9 -174 -67 -304
-132 -199 -100 -191 -96 -191 -104 0 -5 -5 -8 -10 -8 -12 0 -73 -41 -78 -52
-2 -5 -8 -8 -13 -8 -6 0 -54 -35 -107 -77 -133 -106 -312 -290 -382 -392 -13
-20 -28 -40 -33 -46 -48 -56 -192 -315 -242 -435 -45 -108 -48 -115 -51 -125
-1 -5 -10 -30 -19 -55 -24 -65 -77 -242 -80 -265 -1 -11 -5 -27 -8 -35 -4 -8
-8 -26 -11 -40 -2 -14 -9 -45 -15 -70 -5 -25 -12 -60 -15 -77 -4 -18 -8 -46
-11 -63 -5 -26 -2 -30 17 -30 23 0 78 54 78 77 0 6 3 13 8 15 4 2 52 59 107
128 54 69 115 143 134 165 65 73 295 300 346 340 28 22 51 43 53 47 2 5 8 8
14 8 5 0 16 6 23 13 77 68 255 157 435 217 298 100 475 111 1112 75 49 -3 135
-7 193 -9 59 -2 108 -6 111 -8 5 -6 -53 -58 -65 -58 -5 0 -11 -3 -13 -8 -1 -4
-23 -23 -48 -42 -53 -41 -78 -61 -94 -75 -9 -9 -76 -62 -126 -102 -158 -125
-382 -326 -545 -488 -161 -162 -186 -189 -280 -305 -37 -47 -72 -86 -77 -88
-4 -2 -8 -10 -8 -18 0 -8 -4 -14 -8 -14 -9 0 -135 -170 -212 -285 -29 -44 -61
-91 -70 -105 -64 -96 -270 -502 -270 -532 0 -8 -4 -18 -9 -23 -4 -6 -30 -71
-56 -145 -26 -74 -51 -144 -55 -155 -5 -11 -11 -31 -14 -45 -2 -14 -14 -56
-26 -95 -11 -38 -22 -79 -24 -90 -3 -11 -12 -51 -21 -90 -21 -89 -25 -104 -30
-135 -2 -14 -6 -36 -9 -50 -3 -13 -8 -40 -11 -60 -3 -20 -8 -47 -10 -60 -3
-14 -8 -48 -10 -76 -3 -28 -8 -61 -10 -74 -9 -48 -18 -219 -17 -340 1 -201 16
-376 47 -547 8 -43 17 -91 20 -108 3 -16 9 -46 14 -65 5 -19 22 -80 36 -135
15 -55 34 -116 42 -135 8 -19 16 -39 17 -45 5 -24 18 -62 31 -90 7 -16 23 -55
35 -85 30 -75 148 -311 166 -331 8 -8 14 -19 14 -23 0 -9 162 -256 181 -276 8
-8 23 -28 33 -45 20 -32 117 -153 176 -220 42 -48 285 -290 327 -325 117 -98
220 -180 227 -180 3 0 37 -23 76 -50 39 -28 75 -50 80 -50 6 0 10 -5 10 -11 0
-5 4 -8 9 -5 5 4 11 3 13 -2 9 -22 304 -175 453 -235 50 -19 104 -41 120 -48
32 -13 41 -16 65 -22 8 -2 22 -7 30 -10 44 -18 195 -62 195 -56 0 1 10 -3 22
-9 12 -7 39 -15 60 -18 21 -3 41 -8 46 -11 4 -2 20 -7 35 -9 15 -3 43 -9 62
-14 19 -5 51 -11 70 -14 19 -3 58 -10 85 -15 28 -5 74 -12 104 -16 30 -4 63
-9 75 -11 12 -2 46 -6 76 -9 30 -3 69 -8 86 -10 44 -6 220 -17 339 -20 55 -2
102 -4 105 -5 3 -1 10 -1 15 0 6 1 73 3 150 5 142 3 278 12 328 21 15 2 51 6
80 9 55 5 92 10 172 25 28 5 61 12 75 14 14 2 45 9 70 15 25 5 56 12 70 15 14
3 40 9 58 15 18 5 33 10 35 9 1 0 22 5 47 12 25 7 52 13 60 15 58 11 302 110
437 176 137 67 408 234 456 280 8 8 36 32 63 54 59 49 167 147 214 195 124
127 318 373 396 502 21 35 42 65 46 66 4 2 8 7 8 12 0 5 19 41 43 82 78 131
165 311 267 553 32 76 131 358 145 415 2 8 12 44 23 80 19 64 19 96 1 84 -5
-3 -9 0 -9 5 0 6 -9 11 -20 11 -12 0 -29 -16 -46 -45 -14 -25 -30 -45 -35 -45
-5 0 -9 -5 -9 -10 0 -13 -53 -89 -87 -125 -7 -8 -13 -18 -13 -23 0 -6 -3 -12
-8 -14 -4 -1 -23 -23 -42 -48 -19 -25 -39 -50 -45 -56 -5 -6 -28 -33 -50 -59
-98 -119 -281 -308 -401 -413 -180 -159 -402 -319 -599 -432 -137 -78 -432
-220 -459 -220 -6 0 -27 -8 -46 -18 -48 -25 -209 -77 -216 -70 -10 11 -10
5268 1 5269 6 1 15 0 20 -1 67 -14 493 -19 575 -7 25 4 65 9 90 12 25 2 56 7
70 10 95 22 117 26 130 29 8 2 35 9 60 16 25 8 48 14 53 16 4 1 9 3 12 4 3 1
8 3 13 5 4 1 16 5 27 9 11 5 38 15 60 23 53 20 219 96 225 103 3 4 31 21 62
39 187 106 382 283 495 451 59 87 156 283 168 340 1 3 7 23 13 45 6 22 11 42
11 45 0 3 5 19 11 35 7 17 14 44 17 60 2 17 6 41 9 55 5 26 9 52 19 130 4 25
8 88 10 141 4 93 3 97 -18 103 -29 8 -40 7 -52 -2z m-4424 -1255 c55 -17 53
-16 88 -23 l29 -6 0 -2039 c0 -1160 -3 -2041 -8 -2044 -5 -3 -6 -15 -2 -26 7
-18 -17 -189 -34 -241 -3 -10 -7 -30 -10 -44 -16 -90 -151 -367 -186 -382 -5
-2 -8 -8 -8 -13 0 -10 -24 -39 -96 -117 l-51 -55 -64 65 c-35 36 -90 94 -121
129 -32 35 -66 73 -76 84 -96 102 -336 454 -388 569 -8 17 -19 38 -24 46 -31
49 -160 359 -159 383 0 1 -10 29 -21 62 -12 33 -23 67 -25 75 -1 8 -8 33 -13
55 -6 22 -13 51 -16 65 -3 14 -9 41 -14 60 -5 19 -9 38 -10 43 -1 4 -4 22 -7
40 -3 17 -7 46 -9 62 -2 17 -5 30 -6 30 -1 0 -9 71 -15 140 -2 28 -5 50 -5 50
-9 0 -12 346 -6 490 4 75 12 158 21 215 2 14 7 48 10 75 14 124 72 389 120
545 15 47 28 90 29 95 2 6 8 23 14 38 7 16 12 31 12 34 0 39 229 534 285 617
14 20 25 40 25 43 0 13 191 306 202 311 4 2 8 10 8 18 0 8 4 14 8 14 4 0 16
13 25 30 10 16 23 35 30 42 7 7 32 40 56 73 24 33 51 67 60 77 9 9 27 31 41
49 36 48 115 138 205 236 44 48 45 48 106 30z m1379 -252 c113 -25 156 -32
163 -28 4 2 7 -1 7 -7 0 -6 3 -9 8 -7 4 3 82 -10 173 -29 92 -18 179 -36 195
-38 16 -3 43 -10 61 -15 17 -5 34 -7 36 -5 2 3 15 0 28 -6 l24 -11 -1 -2662
c-1 -1464 -2 -2665 -3 -2669 0 -4 -18 -10 -38 -15 -21 -4 -40 -8 -43 -8 -3 -1
-21 -5 -40 -10 -19 -4 -48 -8 -65 -8 -106 3 -306 14 -340 18 -22 3 -58 8 -80
10 -22 2 -56 6 -76 10 -20 3 -51 7 -70 10 -19 2 -88 15 -154 29 -115 25 -155
34 -227 55 -18 6 -49 14 -68 19 -19 5 -48 15 -65 22 -16 6 -37 13 -45 15 -31
7 -218 87 -320 137 -144 70 -323 177 -405 241 -5 4 -19 14 -30 21 -18 13 -15
17 50 77 107 99 432 426 511 514 88 98 220 258 254 308 14 20 28 37 33 37 4 0
7 6 7 13 0 7 8 22 18 33 19 22 22 27 85 134 50 85 136 261 141 290 1 3 4 10 7
15 6 9 71 199 75 218 1 4 2 8 4 10 1 1 3 11 4 22 2 11 8 38 14 60 6 22 14 56
17 75 3 19 8 42 10 50 7 24 19 103 40 255 15 108 19 414 19 1552 l1 1283 30
-5 c16 -2 41 -7 55 -10z"/>
</g>
</svg>
